<?xml version="1.0" encoding="utf-8"?><svg viewBox="0 0 512 512" xmlns="http://www.w3.org/2000/svg" xmlns:xlink="http://www.w3.org/1999/xlink"><style>:root>svg{display:none}:root>svg:target{display:block}</style><svg viewBox="0 0 26 32" id="alien" xmlns="http://www.w3.org/2000/svg"><defs><style>.acls-1{fill:#bfa041;fill-rule:evenodd}</style></defs><path id="aalien" class="acls-1" d="M1122 4434c-5.59 0-13-10.26-13-18 0-7.98 5.59-14 13-14s13 6.02 13 14c0 7.74-7.41 18-13 18zm0-30c-6.37 0-11 5.05-11 12 0 7.06 6.82 16 11 16s11-8.94 11-16c0-6.95-4.63-12-11-12zm6.7 14.83a5.038 5.038 0 01-3.01 1.17 2.579 2.579 0 01-2.37-1.33c-.84-1.59.01-3.95 1.98-5.5a5.038 5.038 0 013.01-1.17 2.579 2.579 0 012.37 1.33c.84 1.59-.01 3.95-1.98 5.5zm.21-4.56a.559.559 0 00-.6-.27 3.067 3.067 0 00-1.77.74c-1.33 1.04-1.74 2.44-1.45 2.99a.559.559 0 00.6.27 3.067 3.067 0 001.77-.74c1.33-1.04 1.74-2.45 1.45-2.99zm-10.6 5.73a5.038 5.038 0 01-3.01-1.17c-1.97-1.55-2.82-3.91-1.98-5.5a2.579 2.579 0 012.37-1.33 5.038 5.038 0 013.01 1.17c1.97 1.55 2.82 3.91 1.98 5.49a2.569 2.569 0 01-2.37 1.34zm-.85-5.26a3.067 3.067 0 00-1.77-.74.559.559 0 00-.6.27c-.29.54.12 1.95 1.45 2.99a3.067 3.067 0 001.77.74.559.559 0 00.6-.27c.29-.55-.12-1.95-1.45-2.99z" transform="translate(-1109 -4402)"/></svg><svg viewBox="0 0 23.6 24" id="answer"><path d="M18.69 24c-2.54 0-7.17-2.973-11.52-7.4A36.117 36.117 0 011.3 9.013C-.19 6.26-.41 4.313.66 3.224L3.94.264a.964.964 0 011.39.093l4.27 5a1.029 1.029 0 01.14 1.1L8.08 9.811l5.89 5.976 3.3-1.676a.968.968 0 011.08.137l4.92 4.308a1.013 1.013 0 01.1 1.417l-2.86 3.294a2.391 2.391 0 01-1.82.733zM2.08 4.611c-.16.235-.27 1.19.95 3.439a33.732 33.732 0 005.53 7.139c4.35 4.424 8.47 6.812 10.13 6.812a.614.614 0 00.37-.08l2.17-2.511-3.67-3.215-3.35 1.7a.966.966 0 01-1.13-.187l-6.89-7a1.007 1.007 0 01-.18-1.153l1.67-3.4L4.5 2.427z"/></svg><svg viewBox="0 0 13.81 8" id="arrow-down"><path d="M6.9 8a1 1 0 01-.7-.293l-5.93-6a1.019 1.019 0 010-1.414.983.983 0 011.4 0L6.9 5.587 12.13.293a.983.983 0 011.4 0 1.019 1.019 0 010 1.414l-5.93 6A1 1 0 016.9 8z"/></svg><svg viewBox="0 0 32 28" id="banknote-coins" xmlns="http://www.w3.org/2000/svg"><defs><style>.dcls-1{fill:#bfa041;fill-rule:evenodd}</style></defs><path id="dbanknote-coins" class="dcls-1" d="M1133 4268h-1v3a1 1 0 01-1 1h-13a1 1 0 01-1-1v-4a1 1 0 011-1h1v-2h-3a1 1 0 01-1-1v-4a1 1 0 011-1h13a1 1 0 011 1v3h3a1 1 0 011 1v4a1 1 0 01-1 1zm-14 2h11v-2h-11v2zm9-10h-11v2h11v-2zm4 4h-11v2h11v-2zm-3-16a1 1 0 010 2h-1a1 1 0 010-2h1zm-22 12a1 1 0 010-2h1a1 1 0 010 2h-1zm26 0a1 1 0 01-1-1v-13h-28v16h8a1 1 0 010 2h-9a1 1 0 01-1-1v-18a1 1 0 011-1h30a1 1 0 011 1v14a1 1 0 01-1 1zm-15-12c2.76 0 5 2.69 5 6a7.806 7.806 0 01-.11 1.28 1.007 1.007 0 01-.99.82 1.114 1.114 0 01-.17-.02.987.987 0 01-.81-1.16 5.619 5.619 0 00.08-.92c0-2.21-1.35-4-3-4s-3 1.79-3 4a4.909 4.909 0 00.07.86 1 1 0 01-1.97.33 6.747 6.747 0 01-.1-1.19c0-3.31 2.24-6 5-6z" transform="translate(-1102 -4244)"/></svg><svg viewBox="0 0 28.98 32.01" id="brain"><path d="M27.942 16.089c.187.877.532 3.161-.479 4.912a4.016 4.016 0 01-1.661 1.589c.279 1.365-.076 2.893-1.042 4.406C22.971 29.801 19.436 32 16.715 32a3.337 3.337 0 01-2.391-.973 3.347 3.347 0 01-2.396.973c-3.005 0-6.664-2.231-8.333-5.081-.717-1.224-.962-2.437-.725-3.512-1.269-.686-2.139-1.753-2.49-3.079-.395-1.493-.078-3.188.807-4.483-.94-2.614-.337-5.771 1.731-8.966C5.372 3.086 9.414 0 11.928 0c1.127 0 1.886.338 2.396.872C14.833.338 15.59 0 16.715 0c2.613 0 7.119 3.415 9.642 7.31 2.067 3.191 2.611 6.217 1.585 8.779zM13.317 4.537C13.317 2 12.734 2 11.928 2c-1.599 0-5.142 2.603-7.314 5.96-.936 1.447-2.276 4.079-1.702 6.601C3.637 14.278 4.623 14 5.7 14c2.65 0 4.337 2.323 4.408 2.423a.994.994 0 01-.242 1.393 1.011 1.011 0 01-1.403-.236C8.437 17.544 7.285 16 5.7 16c-1.111 0-2.121.426-2.614.673-.729.836-1.034 2.097-.755 3.147.26.983 1.002 1.713 2.146 2.111.283.099.506.316.61.593a.99.99 0 01-.068.846c-.479.834-.091 1.844.319 2.545C6.635 28.129 9.653 30 11.928 30c.818 0 1.389-.617 1.389-1.501V4.537zm11.344 3.854C22.171 4.549 18.229 2 16.715 2c-.803 0-1.382 0-1.382 2.537v23.962c0 .884.569 1.501 1.382 1.501 2.064 0 4.909-1.828 6.342-4.074.588-.921 1.166-2.275.582-3.498a.989.989 0 01-.003-.85c.126-.27.367-.47.658-.546.653-.17 1.117-.504 1.416-1.021.386-.663.455-1.549.414-2.318-1.203.641-3.29 1.315-6.758 1.315a1.004 1.004 0 01-1.008-1.001c0-.552.451-.999 1.008-.999 5.159 0 6.573-1.613 6.587-1.63.033-.04.079-.062.118-.095.927-2.423-.227-5.066-1.41-6.892zM23.399 14c-4.173 0-6.049-2.925-6.049-5 0-.552.451-1.001 1.008-1.001.557 0 1.008.449 1.008 1.001 0 .633.684 3 4.033 3 .557 0 1.008.448 1.008 1s-.451 1-1.008 1zm-3.025 8c.557 0 1.009.447 1.009 1 0 .552-.452 1-1.009 1-.996 0-1.008.958-1.008 1 0 .552-.451 1-1.008 1a1.004 1.004 0 01-1.008-1c0-1.16.821-3 3.024-3zm-10.082 4a1.003 1.003 0 01-1.008-1c0-.99-.967-1-1.009-1a1.004 1.004 0 01-1.008-1c0-.553.451-1 1.008-1 1.17 0 3.025.814 3.025 3 0 .552-.451 1-1.008 1zM7.268 11a1.004 1.004 0 01-1.008-1c0-.552.451-1 1.008-1 .997 0 1.008-.96 1.008-1.001 0-.551.451-.999 1.008-.999.558 0 1.009.448 1.009.999 0 1.16-.821 3.001-3.025 3.001z"/></svg><svg viewBox="0 0 32 31.88" id="bulb-idea"><path d="M31 12.94h-2a1 1 0 110-1.99h2a1 1 0 110 1.99zm-3.29-8.27a1.014 1.014 0 01-1.42 0 1 1 0 010-1.41l3-2.99a1.008 1.008 0 011.42 0 1 1 0 010 1.41zm-6.4 16.45a3.236 3.236 0 00-.31 1.5v5.39c0 .05-.01.1-.01.15a5.2 5.2 0 01-9.98 0 .757.757 0 01-.01-.15v-5.39a3.317 3.317 0 00-.31-1.51A10.8 10.8 0 016 12.34a10.007 10.007 0 1120 0 10.831 10.831 0 01-4.69 8.78zM16 29.89c2.42 0 2.92-1.63 3-1.97v-2.49a9.06 9.06 0 01-2.85.48A10.464 10.464 0 0113 25.4v2.51c.09.37.6 1.98 3 1.98zm0-25.92a8.2 8.2 0 00-8 8.37 9.042 9.042 0 003.95 7.23c.03.02.05.04.08.06a4.441 4.441 0 01.97 2.99v.66a7.594 7.594 0 006 .01v-.67a4.441 4.441 0 01.97-2.99.555.555 0 01.08-.06A9.042 9.042 0 0024 12.34a8.2 8.2 0 00-8-8.37zM5 4.96a.982.982 0 01-.71-.29l-3-2.99a1 1 0 010-1.41 1.008 1.008 0 011.42 0l3 2.99a1 1 0 010 1.41.982.982 0 01-.71.29zm-2 5.99a1 1 0 110 1.99H1a1 1 0 110-1.99h2zm1.29 8.27a1.008 1.008 0 011.42 0 1 1 0 010 1.41l-3 2.99a1.014 1.014 0 01-1.42 0 1 1 0 010-1.41zm23.42 0l3 2.99a1 1 0 010 1.41 1.014 1.014 0 01-1.42 0l-3-2.99a1 1 0 010-1.41 1.008 1.008 0 011.42 0z"/></svg><svg viewBox="0 0 31.88 31.91" id="check-circle-2" xmlns="http://www.w3.org/2000/svg"><defs><style>.gcls-1{fill:#bfa041;fill-rule:evenodd}</style></defs><path id="gcheck-circle-2" class="gcls-1" d="M1117.94 4583.03a.969.969 0 01-.65-.24l-6.97-5.98a.993.993 0 011.29-1.51l6.22 5.33 15.29-18.17a1.009 1.009 0 011.41-.12 1 1 0 01.12 1.4l-15.95 18.94a.986.986 0 01-.68.35h-.08zm0 10.96a14.945 14.945 0 110-29.89 11.639 11.639 0 015.4 1.12.985.985 0 01.5 1.31 1 1 0 01-1.31.51 9.752 9.752 0 00-4.59-.95 12.955 12.955 0 1012.95 12.96 10.667 10.667 0 00-.65-3.68.995.995 0 011.89-.62 12.4 12.4 0 01.76 4.3 14.963 14.963 0 01-14.95 14.94z" transform="translate(-1103 -4562.09)"/></svg><svg viewBox="0 0 512.001 512.001" id="close" xmlns="http://www.w3.org/2000/svg"><path d="M284.286 256.002L506.143 34.144c7.811-7.811 7.811-20.475 0-28.285-7.811-7.81-20.475-7.811-28.285 0L256 227.717 34.143 5.859c-7.811-7.811-20.475-7.811-28.285 0-7.81 7.811-7.811 20.475 0 28.285l221.857 221.857L5.858 477.859c-7.811 7.811-7.811 20.475 0 28.285a19.938 19.938 0 0014.143 5.857 19.94 19.94 0 0014.143-5.857L256 284.287l221.857 221.857c3.905 3.905 9.024 5.857 14.143 5.857s10.237-1.952 14.143-5.857c7.811-7.811 7.811-20.475 0-28.285L284.286 256.002z"/></svg><svg viewBox="0 0 32 32" id="emoticon"><path d="M16 32a16 16 0 1116-16 16.02 16.02 0 01-16 16zm0-30a14 14 0 1014 14A14.015 14.015 0 0016 2zm0 24a9.984 9.984 0 01-8.892-5.55A1 1 0 018 19h16a1 1 0 01.894 1.45A9.949 9.949 0 0116 26zm-6.173-5a7.858 7.858 0 0012.353 0H9.827zM21 15a2 2 0 112-2 2 2 0 01-2 2zm-10 0a2 2 0 112-2 2 2 0 01-2 2z"/></svg><svg viewBox="0 0 9.01 18" id="facebook"><path fill-rule="evenodd" d="M9.009.122c-.282-.044-1.252-.13-2.379-.13-2.357 0-3.973 1.492-3.973 4.229v2.358h-2.66v3.202h2.66v8.209h3.191V9.781h2.649l.407-3.202H5.848V4.535c0-.92.24-1.558 1.523-1.558h1.638V.122z"/></svg><svg viewBox="0 0 31 25.94" id="graduation-cap"><path d="M29 21.94a1.992 1.992 0 01-1-3.72v-7.54l-4.02 2.29c0 .04.02.07.02.1v9.87c0 .04-.02.07-.02.11a1.416 1.416 0 01-.04.2 1.244 1.244 0 01-.18.32.96.96 0 01-.15.14c-.03.02-.05.06-.08.08a18.07 18.07 0 01-17.06 0 .6.6 0 01-.08-.08.96.96 0 01-.15-.14 1.244 1.244 0 01-.18-.32 1.416 1.416 0 01-.04-.2c0-.04-.02-.07-.02-.11v-9.87c0-.03.02-.06.02-.1L.5 9.83a1.007 1.007 0 010-1.74l14-7.98a.993.993 0 011 0l14 7.98a1 1 0 01.5.87c0 .02-.01.03-.01.05s.01.04.01.07v9.14a1.992 1.992 0 01-1 3.72zm-7 .4V14.1l-6.5 3.72a1.027 1.027 0 01-1 0L8 14.1v8.24a16.032 16.032 0 007 1.6 15.806 15.806 0 007-1.6zM15 2.12L3.02 8.96 15 15.8l11.98-6.84z"/></svg><svg viewBox="0 0 32 29" id="heart" xmlns="http://www.w3.org/2000/svg"><path fill-rule="evenodd" fill="#BFA041" d="M29.423 15.192c-.006.008-.008.019-.015.027l-11.1 12.655c-.525.609-1.241.946-2.009.946h-.001c-.757 0-1.492-.346-2.014-.949L3.192 15.219c-.006-.007-.007-.015-.013-.022C.021 11.86.032 6.479 3.223 3.163c3.188-3.31 8.359-3.328 11.572-.061l.001.001 1.502 1.31 1.506-1.311.002-.001c3.213-3.266 8.383-3.248 11.57.061 3.188 3.315 3.199 8.694.047 12.03zM28.008 4.584a6.137 6.137 0 00-8.898.001c-.011.011-.025.015-.036.025-.011.011-.015.025-.027.034L16.92 6.497c-.047.041-.103.062-.155.092-.034.02-.064.044-.1.06a.925.925 0 01-.366.083h-.001-.001a.925.925 0 01-.366-.083c-.037-.016-.068-.041-.104-.062-.05-.03-.105-.05-.151-.091l-2.124-1.852c-.011-.01-.015-.023-.025-.033-.012-.011-.026-.014-.037-.026a6.135 6.135 0 00-8.898 0c-2.453 2.55-2.453 6.696 0 9.246.005.005.006.013.011.018.006.007.014.009.02.015l11.096 12.657c.323.372.835.371 1.155.004l11.103-12.661c.005-.006.014-.008.019-.015.005-.005.007-.013.012-.018 2.451-2.55 2.451-6.696 0-9.247z"/></svg><svg viewBox="0 0 16 16" id="instagram"><path fill-rule="evenodd" d="M11.601 15.999H4.398A4.398 4.398 0 010 11.601V4.398A4.398 4.398 0 014.398-.001h7.203A4.399 4.399 0 0116 4.398v7.203a4.399 4.399 0 01-4.399 4.398zm3.035-11.601a3.035 3.035 0 00-3.035-3.036H4.398a3.035 3.035 0 00-3.035 3.036v7.203a3.035 3.035 0 003.035 3.035h7.203a3.035 3.035 0 003.035-3.035V4.398zm-2.353.374a1.051 1.051 0 110-2.102 1.051 1.051 0 010 2.102zm-4.299 7.357a4.127 4.127 0 01-4.121-4.122 4.126 4.126 0 014.121-4.122 4.127 4.127 0 014.122 4.122 4.127 4.127 0 01-4.122 4.122zm0-6.881a2.762 2.762 0 00-2.758 2.759 2.76 2.76 0 002.758 2.758 2.761 2.761 0 002.759-2.758 2.762 2.762 0 00-2.759-2.759z"/></svg><svg viewBox="0 0 32 32" id="labyrinth"><path d="M29 32H14a1 1 0 010-2h15a1 1 0 001-1V17h-3v4a1 1 0 01-2 0v-5a1 1 0 011-1h4v-3h-8v13h4a1 1 0 010 2H6a1 1 0 01-1-1v-5a1 1 0 011-1h9V7H7v4a1 1 0 01-2 0V6a1 1 0 011-1h19V1a1 1 0 011-1h3a3.009 3.009 0 013 3v26a3.009 3.009 0 01-3 3zm1-29a1 1 0 00-1-1h-2v4a1 1 0 01-1 1h-9v14a1 1 0 01-1 1H7v3h13V11a1 1 0 011-1h9V3zm-9-1H3a1 1 0 00-1 1v12h8v-4a1 1 0 012 0v5a1 1 0 01-1 1H2v12a1 1 0 001 1h6a1 1 0 010 2H3a3.009 3.009 0 01-3-3V3a3.009 3.009 0 013-3h18a1 1 0 010 2z"/></svg><svg viewBox="0 0 32 32" id="labyrinth-1" xmlns="http://www.w3.org/2000/svg"><defs><style>.ocls-1{fill:#bfa041;fill-rule:evenodd}</style></defs><path id="olabyrinth-1" class="ocls-1" d="M535.2 4113.98c-.047 0-.093.01-.137.01a1 1 0 01-.136-1.99 14.069 14.069 0 007.244-24.54l-2.366 3.17c-.017.02-.043.03-.061.05a10.034 10.034 0 013.032 5.25 1 1 0 01-.766 1.19 1.534 1.534 0 01-.212.02 1 1 0 01-.977-.79 8.047 8.047 0 00-6.081-6.14.991.991 0 01-.759-1.19 1.008 1.008 0 011.193-.76 9.868 9.868 0 013 1.23c.012-.02.015-.04.029-.06l2.374-3.18a13.909 13.909 0 00-15.928.53 1 1 0 11-1.2-1.6 15.888 15.888 0 0119.045-.02c.035.02.075.03.109.05s.052.07.082.09a16.068 16.068 0 01-7.485 28.68zm-16.155-16.96h4.047a9.946 9.946 0 017.641-8.73 1 1 0 11.455 1.94 8.034 8.034 0 106.71 14.17l-2.875-2.89a3.969 3.969 0 01-2.019.57 4.015 4.015 0 114-4.02 3.938 3.938 0 01-.569 2.03l2.866 2.88a7.927 7.927 0 001.524-3.2 1 1 0 111.955.42 9.995 9.995 0 01-19.728-1.17h-4a14.063 14.063 0 0012.114 12.99 1 1 0 01-.13 1.99.6.6 0 01-.132-.01 16.073 16.073 0 01-13.9-15.93v-.03a.017.017 0 000-.01v-.01a16.007 16.007 0 013.168-9.55 1 1 0 011.605 1.2 13.961 13.961 0 00-2.736 7.36zm13.959-.97a2.015 2.015 0 102 2.01 2.013 2.013 0 00-2.004-2.01z" transform="translate(-517 -4082)"/></svg><svg viewBox="0 0 512 512" id="menu" xmlns="http://www.w3.org/2000/svg"><path d="M492 236H20c-11.046 0-20 8.954-20 20s8.954 20 20 20h472c11.046 0 20-8.954 20-20s-8.954-20-20-20zM492 76H20C8.954 76 0 84.954 0 96s8.954 20 20 20h472c11.046 0 20-8.954 20-20s-8.954-20-20-20zM492 396H20c-11.046 0-20 8.954-20 20s8.954 20 20 20h472c11.046 0 20-8.954 20-20s-8.954-20-20-20z"/></svg><svg viewBox="0 0 32 32" id="people" xmlns="http://www.w3.org/2000/svg"><defs><style>.qcls-1{fill:#bfa041;fill-rule:evenodd}</style></defs><path id="qpeople" class="qcls-1" d="M549 4263a1 1 0 01-1 1h-1.117l-.891 7.12a1 1 0 01-.992.88h-4a1 1 0 01-.97-.76l-1-4a1 1 0 111.94-.48l.811 3.24h2.336l.891-7.12a1.248 1.248 0 01.043-.14 1.072 1.072 0 01.063-.18 1.493 1.493 0 01.111-.17c.037-.04.071-.09.115-.13a1.128 1.128 0 01.175-.12c.049-.02.1-.05.148-.07a.787.787 0 01.213-.05c.043 0 .08-.02.124-.02h1v-2.94c0-.01.006-.02.006-.03s-.006-.02-.006-.03c0-2.42-1.051-5-4-5a1 1 0 010-2c3.589 0 6 2.81 6 7 0 .01-.006.02-.006.03s.006.02.006.03v3.94zm-10-15a4 4 0 114 4 4 4 0 01-4-4zm4 2a2 2 0 10-2-2 2 2 0 002 2zm-3 7c0 .01-.006.02-.006.03s.006.02.006.03v5.94a1 1 0 01-1 1h-2.1l-.91 9.1a1 1 0 01-1 .9h-4a1 1 0 01-1-.9l-.91-9.1H527a1 1 0 01-1-1v-5.94c0-.01.006-.02.006-.03s-.006-.02-.006-.03a7 7 0 0114 0zm-7-5a5 5 0 00-5 5c0 .01-.006.02-.006.03s.006.02.006.03v4.94h2a.654.654 0 01.138.03.717.717 0 01.206.04.928.928 0 01.157.08 1.087 1.087 0 01.165.12.841.841 0 01.118.14.851.851 0 01.109.16.981.981 0 01.058.19 1.076 1.076 0 01.044.14l.91 9.1h2.19l.91-9.1a.942.942 0 01.044-.14.98.98 0 01.057-.19 1.4 1.4 0 01.114-.17.821.821 0 01.11-.13.7.7 0 01.178-.12.849.849 0 01.144-.08.765.765 0 01.213-.04.627.627 0 01.135-.03h2v-4.94c0-.01.006-.02.006-.03s-.006-.02-.006-.03a5 5 0 00-5-5zm-4-6a4 4 0 114 4 4 4 0 01-4-4zm4 2a2 2 0 10-2-2 2 2 0 002 2zm-10 4a4 4 0 114-4 4 4 0 01-4 4zm0-6a2 2 0 102 2 2 2 0 00-2-2zm1 7a1 1 0 01-1 1c-2.949 0-4 2.58-4 5 0 .01-.006.02-.006.03s.006.02.006.03v2.94h1a.534.534 0 01.124.03.5.5 0 01.208.04.966.966 0 01.161.08.606.606 0 01.161.11 1.25 1.25 0 01.231.3.922.922 0 01.064.19.708.708 0 01.043.13l.891 7.12h2.336l.811-3.24a1 1 0 111.94.48l-1 4a1 1 0 01-.97.76h-4a1 1 0 01-.992-.88l-.891-7.12H518a1 1 0 01-1-1v-3.94c0-.01.006-.02.006-.03s-.006-.02-.006-.03c0-4.19 2.411-7 6-7a1 1 0 011 1z" transform="translate(-517 -4242)"/></svg><svg viewBox="0 0 19.91 20" id="search" xmlns="http://www.w3.org/2000/svg"><path d="M19.61 18.293A1 1 0 0118.9 20a.982.982 0 01-.7-.293l-4.31-4.344a.927.927 0 01-.14-.2 8.541 8.541 0 111.35-1.338.975.975 0 01.2.127zM8.49 1.893a6.611 6.611 0 106.61 6.612 6.615 6.615 0 00-6.61-6.616z"/></svg><svg viewBox="0 0 32 32" id="trophy-3" xmlns="http://www.w3.org/2000/svg"><defs><style>.scls-1{fill:#bfa041;fill-rule:evenodd}</style></defs><path id="strophy-3" class="scls-1" d="M1128 4092.9v3.1a10.006 10.006 0 01-9 9.95v6.05h6a1 1 0 010 2h-14a1 1 0 010-2h6v-6.05a10.006 10.006 0 01-9-9.95v-3.1c-3.49-.63-6-4.45-6-7.9a1 1 0 011-1h5v-1a1 1 0 011-1h18a1 1 0 011 1v1h5a1 1 0 011 1c0 3.45-2.51 7.27-6 7.9zm-20-6.9h-3.91a6.283 6.283 0 003.91 4.84V4086zm18-2h-16v12a8 8 0 0016 0v-12zm2 2v4.84a6.283 6.283 0 003.91-4.84H1128zm-8 13h-4a1 1 0 010-2h1v-5.59l-1.29 1.3a1 1 0 01-1.42-1.42l3-3a1 1 0 011.09-.21.987.987 0 01.62.92v8h1a1 1 0 010 2z" transform="translate(-1102 -4082)"/></svg><svg viewBox="0 0 18.25 17.12" id="viber"><path fill-rule="evenodd" d="M17.587 4.087l-.008-.02c-.432-1.6-2.39-3.321-4.185-3.682l-.022-.007a25.563 25.563 0 00-8.751 0l-.023.007C2.803.746.845 2.461.413 4.073l-.008.014a14.343 14.343 0 000 6.744l.008.021c.417 1.531 2.227 3.17 3.955 3.626v1.79c0 .395.349.721.789.721a.79.79 0 00.566-.217l1.981-1.885a25.516 25.516 0 005.668-.348l.022-.006c1.795-.361 3.753-2.075 4.185-3.681l.008-.021a14.343 14.343 0 000-6.744zM6.847 6.66a.737.737 0 01.187-.178c.081-.061.164-.122.245-.176.35-.218.403-.613.209-.932A8.333 8.333 0 006.363 3.93a.608.608 0 00-.729-.156 2.631 2.631 0 00-.909.626c-.261.286-.514.674-.343 1.056.186.415.365.829.581 1.231.455.857.991 1.653 1.683 2.361 1.214 1.246 2.741 2.063 4.409 2.688.172.054.343.102.514.143.157-.047.328-.068.462-.136a2.349 2.349 0 001.073-1.083c.126-.251.052-.489-.179-.672-.231-.184-.492-.354-.752-.525a18.85 18.85 0 00-.797-.496.76.76 0 00-.85.033c-.253.192-.379.565-.751.607-.224.019-.41-.062-.604-.137-1.199-.455-1.929-1.3-2.361-2.388a.432.432 0 01.037-.422zm2.764-1.83c.282.04.558.114.819.231.864.395 1.4 1.203 1.37 2.082a.418.418 0 00.03.19c.075.204.41.177.462-.02.015-.055.015-.115.022-.136-.007-.137-.015-.238-.022-.341l-.023-.122c-.148-.919-.662-1.613-1.571-2.049a3.772 3.772 0 00-1.423-.34c-.126-.013-.245.075-.26.191v.021c-.015.122.074.231.208.245h.015c.127.013.253.027.373.048zm-.269.775c-.022.122.068.238.202.266.134.026.275.019.402.054a.91.91 0 01.29.129.862.862 0 01.358.518c.022.101.044.209.052.319 0 .129.119.238.268.238h.045c.096-.014.178-.081.193-.163a.763.763 0 000-.191c-.089-.904-.693-1.307-1.534-1.361a.265.265 0 00-.276.191zm4 1c-.379-1.963-2.16-3.274-4.328-3.34.211.008 2.002.052-.005 0L9 3.264l.008.001-.015-.001h-.127c-.142 0-.261.102-.261.239v.033c.045.17.246.177.402.197.246.021.492.035.738.075 1.631.279 2.882 1.47 3.127 2.967.045.279.06.565.083.851.014.143.089.279.26.272a.244.244 0 00.246-.279c-.022-.34-.06-.68-.119-1.014z"/></svg><svg viewBox="0 0 26 32" id="web-camera"><path d="M22.252 22.12C24.026 23.17 25 24.52 25 26c0 3.42-5.159 6-12 6S1 29.42 1 26c0-1.48.973-2.83 2.748-3.88a13 13 0 1118.504 0zM3 26c0 1.89 4.276 4 10 4s10-2.11 10-4c0-.85-.88-1.76-2.372-2.5a12.887 12.887 0 01-15.256 0C3.88 24.24 3 25.15 3 26zM13 2a11 11 0 1011 11A11.01 11.01 0 0013 2zm0 17a6 6 0 116-6 6.005 6.005 0 01-6 6zm0-10a4 4 0 104 4 4 4 0 00-4-4zm0 6a2 2 0 112-2 2 2 0 01-2 2z"/></svg></svg>